<svg width="24" height="25" viewBox="0 0 24 25" fill="none" xmlns="http://www.w3.org/2000/svg">
<path d="M16.7 19.48H7.30002C6.88002 19.48 6.41002 19.15 6.27002 18.75L2.13002 7.17C1.54002 5.51 2.23002 5 3.65002 6.02L7.55002 8.81C8.20002 9.26 8.94002 9.03 9.22002 8.3L10.98 3.61C11.54 2.11 12.47 2.11 13.03 3.61L14.79 8.3C15.07 9.03 15.81 9.26 16.45 8.81L20.11 6.2C21.67 5.08 22.42 5.65 21.78 7.46L17.74 18.77C17.59 19.15 17.12 19.48 16.7 19.48Z" stroke="#5E6368" stroke-width="2" stroke-linecap="round" stroke-linejoin="round"/>
<path d="M6.5 22.5H17.5" stroke="#5E6368" stroke-width="2" stroke-linecap="round" stroke-linejoin="round"/>
<path d="M9.5 14.5H14.5" stroke="#5E6368" stroke-width="2" stroke-linecap="round" stroke-linejoin="round"/>
</svg>
