<svg width="20" height="21" viewBox="0 0 20 21" fill="none" xmlns="http://www.w3.org/2000/svg">
<path d="M17.5 5.48332C14.725 5.20832 11.9333 5.06665 9.15 5.06665C7.5 5.06665 5.85 5.14998 4.2 5.31665L2.5 5.48332" stroke="#5E6368" stroke-width="1.5" stroke-linecap="round" stroke-linejoin="round"/>
<path d="M7.08325 4.64169L7.26659 3.55002C7.39992 2.75835 7.49992 2.16669 8.90825 2.16669H11.0916C12.4999 2.16669 12.6083 2.79169 12.7333 3.55835L12.9166 4.64169" stroke="#5E6368" stroke-width="1.5" stroke-linecap="round" stroke-linejoin="round"/>
<path d="M15.7084 8.11664L15.1667 16.5083C15.0751 17.8166 15.0001 18.8333 12.6751 18.8333H7.32508C5.00008 18.8333 4.92508 17.8166 4.83341 16.5083L4.29175 8.11664" stroke="#5E6368" stroke-width="1.5" stroke-linecap="round" stroke-linejoin="round"/>
<path d="M8.6084 14.25H11.3834" stroke="#5E6368" stroke-width="1.5" stroke-linecap="round" stroke-linejoin="round"/>
<path d="M7.91675 10.9167H12.0834" stroke="#5E6368" stroke-width="1.5" stroke-linecap="round" stroke-linejoin="round"/>
</svg>
